<svg width="20" height="10" viewBox="0 0 20 10" fill="none" xmlns="http://www.w3.org/2000/svg">
<path d="M19.4834 7.26124L11.3255 0.473536C11.1487 0.323488 10.9384 0.204393 10.7067 0.123119C10.475 0.0418444 10.2264 0 9.97539 0C9.72436 0 9.47581 0.0418444 9.24408 0.123119C9.01236 0.204393 8.80204 0.323488 8.62526 0.473536L0.562489 7.26124C0.384255 7.41006 0.242787 7.58712 0.146246 7.7822C0.0497039 7.97728 0 8.18652 0 8.39786C0 8.60919 0.0497039 8.81844 0.146246 9.01352C0.242787 9.2086 0.384255 9.38566 0.562489 9.53448C0.918777 9.83264 1.40074 10 1.90311 10C2.40549 10 2.88745 9.83264 3.24374 9.53448L9.97539 3.86739L16.707 9.53448C17.0612 9.83023 17.5393 9.99696 18.0382 9.99873C18.2884 9.99995 18.5365 9.95957 18.7682 9.8799C18.9999 9.80023 19.2106 9.68285 19.3883 9.53448C19.5729 9.39101 19.7219 9.21817 19.8267 9.02595C19.9315 8.83372 19.99 8.62592 19.9988 8.41455C20.0077 8.20317 19.9667 7.99242 19.8782 7.79447C19.7897 7.59651 19.6555 7.41528 19.4834 7.26124Z" fill="#FFEA5D"/>
</svg>
