<svg width="20" height="12" viewBox="0 0 20 12" fill="none" xmlns="http://www.w3.org/2000/svg">
<path d="M3.20164 0.553254C2.9378 0.287524 2.60139 0.10711 2.23537 0.0350552C1.86934 -0.037 1.49033 0.00257259 1.14672 0.148721C0.803113 0.294869 0.510511 0.54096 0.306283 0.855561C0.102056 1.17016 -0.00452616 1.539 0.000147367 1.91496C-0.00101636 2.16345 0.0470572 2.40966 0.141548 2.63917C0.236038 2.86867 0.375043 3.07684 0.550404 3.25145L8.67919 11.4469C9.03091 11.8011 9.5077 12 10.0048 12C10.5019 12 10.9787 11.8011 11.3304 11.4469L19.4592 3.25145C19.8061 2.88942 20 2.40572 20 1.90235C20 1.39898 19.8061 0.915278 19.4592 0.553254C19.1075 0.199083 18.6307 0.000148666 18.1336 0.000148666C17.6365 0.000148666 17.1597 0.199083 16.808 0.553254L10.0048 7.41221L3.20164 0.553254Z" fill="#3B82D4"/>
</svg>
