<svg width="18" height="22" viewBox="0 0 18 22" fill="none" xmlns="http://www.w3.org/2000/svg">
<path d="M8.20215 10.9989L12.1846 7.10489C12.3942 6.8988 12.5118 6.62 12.5118 6.32939C12.5118 6.03879 12.3942 5.75999 12.1846 5.55389C12.0801 5.45079 11.9556 5.36896 11.8185 5.31311C11.6815 5.25727 11.5344 5.22852 11.3859 5.22852C11.2374 5.22852 11.0903 5.25727 10.9532 5.31311C10.8162 5.36896 10.6917 5.45079 10.5871 5.55389L5.81715 10.2179C5.7117 10.3202 5.62801 10.4418 5.5709 10.5759C5.51378 10.7099 5.48438 10.8537 5.48438 10.9989C5.48438 11.1441 5.51378 11.2879 5.5709 11.4219C5.62801 11.556 5.7117 11.6776 5.81715 11.7799L10.5871 16.4989C10.6923 16.6008 10.8169 16.6815 10.954 16.7362C11.0911 16.791 11.2378 16.8187 11.3859 16.8179C11.534 16.8187 11.6807 16.791 11.8178 16.7362C11.9549 16.6815 12.0795 16.6008 12.1846 16.4989C12.3942 16.2928 12.5118 16.014 12.5118 15.7234C12.5118 15.4328 12.3942 15.154 12.1846 14.9479L8.20215 10.9989Z" fill="#101010"/>
</svg>
