<svg aria-hidden="true" style="position: absolute; width: 0; height: 0; overflow: hidden;" version="1.1" xmlns="http://www.w3.org/2000/svg" xmlns:xlink="http://www.w3.org/1999/xlink">
<defs>
<symbol id="icon-burger" viewBox="0 0 36 32">
<path d="M0 0.64v4.237h35.84v-4.237h-35.84zM0 13.618v4.237h35.84v-4.237h-35.84zM0 27.125v4.235h35.84v-4.237l-35.84 0.002z"></path>
</symbol>
<symbol id="icon-close_btn" viewBox="0 0 32 32">
<path d="M18.82 16.004l12.57-12.57c0.191-0.184 0.343-0.405 0.448-0.648s0.16-0.506 0.162-0.771c0.002-0.265-0.048-0.528-0.149-0.774s-0.249-0.469-0.436-0.656c-0.188-0.188-0.411-0.336-0.656-0.436s-0.508-0.151-0.774-0.149c-0.265 0.002-0.527 0.057-0.771 0.162s-0.464 0.257-0.648 0.448l-12.57 12.57-12.57-12.57c-0.376-0.368-0.882-0.572-1.408-0.569s-1.029 0.213-1.401 0.585c-0.372 0.372-0.582 0.875-0.585 1.401s0.202 1.032 0.569 1.408l12.57 12.57-12.57 12.57c-0.189 0.185-0.339 0.405-0.442 0.648s-0.157 0.505-0.158 0.769c-0.001 0.264 0.050 0.526 0.15 0.77s0.248 0.466 0.435 0.653c0.187 0.187 0.409 0.335 0.653 0.435s0.506 0.151 0.77 0.15c0.264-0.002 0.525-0.055 0.769-0.159s0.464-0.253 0.648-0.442l12.57-12.57 12.57 12.57c0.39 0.39 0.901 0.585 1.412 0.585s1.023-0.195 1.412-0.585c0.375-0.375 0.585-0.883 0.585-1.412s-0.21-1.038-0.585-1.412l-12.57-12.57z"></path>
</symbol>
<symbol id="icon-left_arrow" viewBox="0 0 26 32">
<path d="M11.93 15.998l5.793-5.664c0.305-0.3 0.476-0.705 0.476-1.128s-0.171-0.828-0.476-1.128c-0.152-0.15-0.333-0.269-0.532-0.35s-0.413-0.123-0.629-0.123-0.43 0.042-0.629 0.123c-0.199 0.081-0.38 0.2-0.533 0.35l-6.938 6.784c-0.153 0.149-0.275 0.326-0.358 0.521s-0.126 0.404-0.126 0.615 0.043 0.42 0.126 0.615c0.083 0.195 0.205 0.372 0.358 0.521l6.938 6.864c0.153 0.148 0.334 0.266 0.534 0.345s0.413 0.12 0.628 0.119c0.215 0.001 0.429-0.039 0.628-0.119s0.381-0.197 0.534-0.345c0.305-0.3 0.476-0.705 0.476-1.128s-0.171-0.828-0.476-1.128l-5.793-5.744z"></path>
</symbol>
<symbol id="icon-chevron_desktop" viewBox="0 0 53 32">
<path d="M8.538 1.475c-0.704-0.709-1.601-1.19-2.577-1.382s-1.987-0.087-2.903 0.303c-0.916 0.39-1.697 1.046-2.241 1.885s-0.829 1.822-0.816 2.825c-0.003 0.663 0.125 1.319 0.377 1.931s0.623 1.167 1.090 1.633l21.677 21.855c0.938 0.945 2.209 1.475 3.535 1.475s2.597-0.53 3.535-1.475l21.677-21.855c0.925-0.965 1.442-2.255 1.442-3.598s-0.517-2.632-1.442-3.598c-0.938-0.944-2.209-1.475-3.535-1.475s-2.597 0.53-3.535 1.475l-18.142 18.291-18.142-18.291z"></path>
</symbol>
<symbol id="icon-chevron_mobile" viewBox="0 0 64 32">
<path d="M62.347 23.236l-26.105-21.721c-0.566-0.48-1.239-0.861-1.98-1.121s-1.537-0.394-2.34-0.394c-0.803 0-1.599 0.134-2.34 0.394s-1.415 0.641-1.98 1.121l-25.801 21.721c-0.57 0.476-1.023 1.043-1.332 1.667s-0.468 1.294-0.468 1.97c0 0.676 0.159 1.346 0.468 1.97s0.762 1.191 1.332 1.667c1.14 0.954 2.682 1.49 4.29 1.49s3.15-0.536 4.29-1.49l21.541-18.135 21.541 18.135c1.133 0.946 2.663 1.48 4.26 1.486 0.801 0.004 1.595-0.125 2.336-0.38s1.416-0.631 1.984-1.105c0.591-0.459 1.068-1.012 1.403-1.627s0.523-1.28 0.551-1.956c0.028-0.676-0.103-1.351-0.386-1.984s-0.713-1.213-1.263-1.706z"></path>
</symbol>
</defs>
</svg>
