<svg aria-hidden="true" style="position: absolute; width: 0; height: 0; overflow: hidden;" version="1.1" xmlns="http://www.w3.org/2000/svg" xmlns:xlink="http://www.w3.org/1999/xlink">
<defs>
<symbol id="icon-icon-close" viewBox="0 0 32 32">
<path d="M18.82 16.004l12.57-12.57c0.191-0.184 0.343-0.405 0.448-0.648s0.16-0.506 0.162-0.771c0.002-0.265-0.048-0.528-0.149-0.774s-0.249-0.469-0.436-0.656c-0.188-0.188-0.411-0.336-0.656-0.436s-0.508-0.151-0.774-0.149c-0.265 0.002-0.527 0.057-0.771 0.162s-0.464 0.257-0.648 0.448l-12.57 12.57-12.57-12.57c-0.376-0.368-0.882-0.572-1.408-0.569s-1.029 0.213-1.401 0.585c-0.372 0.372-0.582 0.875-0.585 1.401s0.202 1.032 0.569 1.408l12.57 12.57-12.57 12.57c-0.189 0.185-0.339 0.405-0.442 0.648s-0.157 0.505-0.158 0.769c-0.001 0.264 0.050 0.526 0.15 0.77s0.248 0.466 0.435 0.653c0.187 0.187 0.409 0.335 0.653 0.435s0.506 0.151 0.77 0.15c0.264-0.002 0.525-0.055 0.769-0.159s0.464-0.253 0.648-0.442l12.57-12.57 12.57 12.57c0.39 0.39 0.901 0.585 1.412 0.585s1.023-0.195 1.412-0.585c0.375-0.375 0.585-0.883 0.585-1.412s-0.21-1.038-0.585-1.412l-12.57-12.57z"></path>
</symbol>
<symbol id="icon-icon-down" viewBox="0 0 53 32">
<path fill="#3b82d4" style="fill: var(--color1, #3b82d4)" d="M8.538 1.475c-0.704-0.709-1.601-1.19-2.577-1.382s-1.987-0.087-2.903 0.303c-0.916 0.39-1.697 1.046-2.241 1.885s-0.829 1.822-0.816 2.825c-0.003 0.663 0.125 1.319 0.377 1.931s0.623 1.167 1.090 1.633l21.677 21.855c0.938 0.945 2.209 1.475 3.535 1.475s2.597-0.53 3.535-1.475l21.677-21.855c0.925-0.965 1.442-2.255 1.442-3.598s-0.517-2.632-1.442-3.598c-0.938-0.944-2.209-1.475-3.535-1.475s-2.597 0.53-3.535 1.475l-18.142 18.291-18.142-18.291z"></path>
</symbol>
<symbol id="icon-icon-up" viewBox="0 0 53 32">
<path fill="#3b82d4" style="fill: var(--color1, #3b82d4)" d="M51.956 23.236l-21.754-21.721c-0.471-0.48-1.032-0.861-1.65-1.121s-1.281-0.394-1.95-0.394c-0.669 0-1.332 0.134-1.95 0.394s-1.179 0.641-1.65 1.121l-21.501 21.721c-0.475 0.476-0.853 1.043-1.11 1.667s-0.39 1.294-0.39 1.97c0 0.676 0.133 1.346 0.39 1.97s0.635 1.191 1.11 1.667c0.95 0.954 2.235 1.49 3.575 1.49s2.625-0.535 3.575-1.49l17.951-18.135 17.951 18.135c0.945 0.946 2.219 1.48 3.55 1.486 0.667 0.004 1.329-0.125 1.947-0.38s1.18-0.631 1.654-1.105c0.492-0.459 0.89-1.012 1.169-1.627s0.435-1.28 0.459-1.956c0.024-0.677-0.086-1.351-0.322-1.984s-0.594-1.213-1.053-1.706z"></path>
</symbol>
</defs>
</svg>
